<svg xmlns="http://www.w3.org/2000/svg" viewBox="0 0 351.74 35.02" xmlns:v="https://vecta.io/nano"><defs><clipPath id="A" transform="translate(-16.22 -22.52)"><path d="M0 0h383.63v80.07H0z" fill="none"/></clipPath></defs><g clip-path="url(#A)"><g fill="#3f4c61"><path d="M154.78 15.48l-2.6 1.33h-2.65v-1.33zm-1.62 7.66h-1.56v-6.31a1.22 1.22 0 0 1 .58-1.07 1.49 1.49 0 0 1 .89-.28h2.3v1.33h-2.21zm4.69-3.12v1.79h4v1.33h-4.07a1.42 1.42 0 0 1-1.18-.55 1.27 1.27 0 0 1-.29-.8v-5a1.23 1.23 0 0 1 .59-1.07 1.46 1.46 0 0 1 .88-.24h4.12v1.33h-4v1.88h3.67v1.33zm7.41 1.79h3.67v1.33h-3.76a1.41 1.41 0 0 1-1.19-.56 1.28 1.28 0 0 1-.27-.79v-6.31h1.55zm-13.08 5.67h.94a4.08 4.08 0 0 1 1.73.39 2.28 2.28 0 0 1 .55.37l-1.22.94a1.34 1.34 0 0 0-.9-.48h-1.1a1.18 1.18 0 0 0-1 .56 1.57 1.57 0 0 0-.26.88v1.66a1.43 1.43 0 0 0 .51 1.15 1.24 1.24 0 0 0 .79.29h1.81v-2.32h1.42v2.24a1.14 1.14 0 0 1-.53 1 1.42 1.42 0 0 1-.8.24h-1.9a2.64 2.64 0 0 1-1.95-.81 2.5 2.5 0 0 1-.76-1.84v-1.67a2.51 2.51 0 0 1 .82-1.91 2.63 2.63 0 0 1 1.85-.69m7.84 7h-.94a2.66 2.66 0 0 1-2-.81 2.5 2.5 0 0 1-.76-1.84v-1.85a2.53 2.53 0 0 1 .81-1.89 2.68 2.68 0 0 1 1.9-.75h.94a2.65 2.65 0 0 1 1.94.8 2.54 2.54 0 0 1 .87 1.84v1.85a2.53 2.53 0 0 1-.81 1.9 2.7 2.7 0 0 1-1.9.75m-.94-1.21h.94a1.19 1.19 0 0 0 1-.57 1.49 1.49 0 0 0 .27-.87v-1.85a1.42 1.42 0 0 0-.53-1.15 1.14 1.14 0 0 0-.76-.28h-.94a1.15 1.15 0 0 0-1 .56 1.43 1.43 0 0 0-.28.87v1.85a1.41 1.41 0 0 0 .52 1.15 1.24 1.24 0 0 0 .78.29m12.59-13.25v1.79h4v1.33h-4.07a1.44 1.44 0 0 1-1.19-.55 1.26 1.26 0 0 1-.28-.8v-5a1.21 1.21 0 0 1 .59-1.07 1.44 1.44 0 0 1 .88-.28h4.05v1.33h-4v1.88h3.66v1.33zm7.06-1.62v1.83a1.57 1.57 0 0 0 .57 1.26 1.3 1.3 0 0 0 .86.32h1a1.49 1.49 0 0 0 1.07-.42l.1-.11 1.35 1a3.43 3.43 0 0 1-1.76.75 3.51 3.51 0 0 1-.76.08h-1a2.91 2.91 0 0 1-2.14-.88 2.79 2.79 0 0 1-.84-2V18.4a2.77 2.77 0 0 1 .89-2.09 3 3 0 0 1 2.09-.83h1a4.41 4.41 0 0 1 1.91.44 2.3 2.3 0 0 1 .61.4l-1.35 1a1.48 1.48 0 0 0-1-.54h-1.22a1.32 1.32 0 0 0-1.13.62 1.66 1.66 0 0 0-.3 1m9.85 4.84h-1a2.91 2.91 0 0 1-2.14-.88 2.79 2.79 0 0 1-.84-2v-2a2.8 2.8 0 0 1 .89-2.08 3 3 0 0 1 2.09-.83h1a2.91 2.91 0 0 1 2.14.89 2.76 2.76 0 0 1 .84 2v2a2.8 2.8 0 0 1-.89 2.09 3 3 0 0 1-2.09.82m-1-1.33h1a1.31 1.31 0 0 0 1.12-.62 1.65 1.65 0 0 0 .3-1v-2a1.55 1.55 0 0 0-.58-1.27 1.32 1.32 0 0 0-.84-.31h-1a1.31 1.31 0 0 0-1.12.62 1.6 1.6 0 0 0-.31 1v2a1.55 1.55 0 0 0 .57 1.26 1.3 1.3 0 0 0 .86.32m12.29-4.85l-1.73 4.95h-1.64l-1.72-4.95-.58 6.07h-1.67l.71-6.38a1.43 1.43 0 0 1 .82-1.2 1.59 1.59 0 0 1 .61-.13 1.21 1.21 0 0 1 1.07.54 1.25 1.25 0 0 1 .15.28l1.43 4.23 1.46-4.23a1.19 1.19 0 0 1 .9-.78 1.87 1.87 0 0 1 .32 0 1.32 1.32 0 0 1 1.14.57 1.63 1.63 0 0 1 .29.76l.71 6.38h-1.66zm10.49 0l-1.72 4.95H207l-1.73-4.95-.59 6.07h-1.66l.71-6.38a1.44 1.44 0 0 1 .81-1.2 1.64 1.64 0 0 1 .62-.13 1.22 1.22 0 0 1 1.07.54 1.25 1.25 0 0 1 .15.28l1.4 4.23 1.44-4.19a1.18 1.18 0 0 1 .9-.78 1.75 1.75 0 0 1 .32 0 1.34 1.34 0 0 1 1.14.57 1.63 1.63 0 0 1 .29.76l.71 6.38h-1.67zm3.42-1.59h1.56v4.75a1.58 1.58 0 0 0 .54 1.25 1.27 1.27 0 0 0 .84.31h.84a1.3 1.3 0 0 0 1.12-.61 1.6 1.6 0 0 0 .31-1v-4.7h1.55v4.75a2.78 2.78 0 0 1-.9 2.09 2.92 2.92 0 0 1-2.08.82h-.84a2.92 2.92 0 0 1-2.14-.88 2.79 2.79 0 0 1-.84-2zm9.7 0a1.56 1.56 0 0 1 1.38 1l.17.36 2.16 5.06v-6.42h1.59v6.36a1.21 1.21 0 0 1-.62 1.06 1.61 1.61 0 0 1-.94.29 1.57 1.57 0 0 1-1.38-1l-.17-.37-2.16-5.06v6.36h-1.55v-6.34a1.23 1.23 0 0 1 .62-1.06 1.68 1.68 0 0 1 .94-.29m6.74.05h1.55v7.66h-1.55zm4.26 2.92v1.83a1.57 1.57 0 0 0 .57 1.26 1.32 1.32 0 0 0 .86.32h1a1.46 1.46 0 0 0 1.06-.42l.11-.11 1.34 1a3.39 3.39 0 0 1-1.75.75 3.58 3.58 0 0 1-.76.08h-1a2.92 2.92 0 0 1-2.14-.88 2.79 2.79 0 0 1-.84-2V18.4a2.78 2.78 0 0 1 .9-2.09 2.93 2.93 0 0 1 2.08-.83h1a4.45 4.45 0 0 1 1.91.44 2.23 2.23 0 0 1 .6.4l-1.34 1a1.48 1.48 0 0 0-1-.54h-1.22a1.31 1.31 0 0 0-1.12.62 1.67 1.67 0 0 0-.31 1m11.09 3.73h-3.85l-.22-1.34h3.6l-1.31-3.76-2.16 6.11h-1.66l2.26-6.41q.49-1.34 1.56-1.35c.7 0 1.21.46 1.54 1.35l2.27 6.41h-1.66zm6.39-6.65l-2.23 1.33h-2.65v-1.33zm-1.25 7.66h-1.56v-6.31a1.23 1.23 0 0 1 .59-1.07 1.46 1.46 0 0 1 .88-.28h2.3v1.33h-2.21zm3.33-7.66h1.55v7.66h-1.55zm6.75 7.76h-1a2.91 2.91 0 0 1-2.14-.88 2.79 2.79 0 0 1-.84-2v-2a2.76 2.76 0 0 1 .89-2.08 3 3 0 0 1 2.09-.9h1a2.9 2.9 0 0 1 2.14.89 2.74 2.74 0 0 1 .85 2v2a2.78 2.78 0 0 1-.9 2.09 2.93 2.93 0 0 1-2.09.82m-1-1.33h1a1.31 1.31 0 0 0 1.13-.62 1.64 1.64 0 0 0 .29-1v-2a1.57 1.57 0 0 0-.57-1.27 1.35 1.35 0 0 0-.85-.31h-1a1.32 1.32 0 0 0-1.13.62 1.65 1.65 0 0 0-.3 1v2a1.55 1.55 0 0 0 .57 1.26 1.3 1.3 0 0 0 .86.32m6.78-6.37a1.56 1.56 0 0 1 1.37 1l.18.36 2.16 5.06v-6.42h1.51v6.36a1.24 1.24 0 0 1-.62 1.06 1.61 1.61 0 0 1-.94.29 1.57 1.57 0 0 1-1.38-1c-.06-.11-.11-.23-.17-.37l-2.17-5.06v6.36h-1.55v-6.34a1.25 1.25 0 0 1 .62-1.06 1.71 1.71 0 0 1 .95-.29m6.5 2.24a1.9 1.9 0 0 1 .87-1.57 3.31 3.31 0 0 1 2-.62h1a4.11 4.11 0 0 1 1.83.44 2.88 2.88 0 0 1 .59.4l-1.36 1a1.3 1.3 0 0 0-.92-.54h-1.17a1.49 1.49 0 0 0-1.15.43.69.69 0 0 0-.17.43c0 .26.28.49.84.68l.89.25a8.69 8.69 0 0 1 2.13.76 1.85 1.85 0 0 1 1 1.6 1.88 1.88 0 0 1-.9 1.56 3.54 3.54 0 0 1-2.09.62h-1a4.43 4.43 0 0 1-1.91-.43 2.49 2.49 0 0 1-.6-.4l1.33-1a1.46 1.46 0 0 0 1 .52h1.21a1.62 1.62 0 0 0 1.24-.43.64.64 0 0 0 .19-.42c0-.3-.29-.54-.85-.74-.08 0-.57-.17-1.47-.41a4.68 4.68 0 0 1-2.11-1 1.6 1.6 0 0 1-.44-1.14m15.71 4.47h-3.81l-.12-1.34h3.45l-1.32-3.76-2.13 6.11h-1.66l2.26-6.41c.33-.89.85-1.34 1.55-1.35s1.22.46 1.54 1.35l2.31 6.41h-1.67zm4.45-6.65a1.56 1.56 0 0 1 1.38 1l.17.36 2.16 5.06v-6.42h1.56v6.36a1.24 1.24 0 0 1-.62 1.06 1.64 1.64 0 0 1-.95.29 1.58 1.58 0 0 1-1.38-1l-.17-.37-2.16-5.06v6.36h-1.55v-6.34a1.25 1.25 0 0 1 .62-1.06 1.68 1.68 0 0 1 .94-.29m6.72 1.4a1.24 1.24 0 0 1 .58-1.08 1.55 1.55 0 0 1 .88-.27h2.1a2.89 2.89 0 0 1 2.13.89 2.76 2.76 0 0 1 .85 2v1.83a2.8 2.8 0 0 1-.89 2.09 3 3 0 0 1-2.09.82h-3.56zm5 3.4V18.4a1.57 1.57 0 0 0-.58-1.27 1.28 1.28 0 0 0-.84-.32h-2v5h2a1.29 1.29 0 0 0 1.12-.62 1.65 1.65 0 0 0 .3-1m5.9-3.36a1.22 1.22 0 0 1 .59-1.08 1.49 1.49 0 0 1 .87-.27h2.1a2.91 2.91 0 0 1 2.14.89 2.79 2.79 0 0 1 .84 2v1.83a2.8 2.8 0 0 1-.89 2.09 3 3 0 0 1-2.09.82h-3.56zm5 3.4V18.4a1.54 1.54 0 0 0-.58-1.27 1.28 1.28 0 0 0-.84-.32h-2v5h2a1.27 1.27 0 0 0 1.12-.62 1.65 1.65 0 0 0 .3-1m2.78-4.71h1.55v7.66h-1.55zm5.67 0h1a4.45 4.45 0 0 1 1.91.44 2.58 2.58 0 0 1 .61.4l-1.35 1a1.48 1.48 0 0 0-1-.54h-1.22a1.32 1.32 0 0 0-1.12.62 1.73 1.73 0 0 0-.29 1v1.83a1.57 1.57 0 0 0 .57 1.26 1.3 1.3 0 0 0 .86.32h2v-2.49h1.58v2.47a1.26 1.26 0 0 1-.59 1.09 1.48 1.48 0 0 1-.87.26h-2.1a2.91 2.91 0 0 1-2.14-.88 2.79 2.79 0 0 1-.84-2V18.4a2.78 2.78 0 0 1 .9-2.1 2.9 2.9 0 0 1 2.06-.82m5.03 0h1.55v7.66h-1.55zm7.4 0l-2.14 1.33h-2.6v-1.33zm-1.11 7.66h-1.57v-6.31a1.23 1.23 0 0 1 .59-1.07 1.49 1.49 0 0 1 .89-.28h2.35v1.33h-2.21zm7.16-1.01h-4.08l.64-1.34h3l-1.32-3.76-2.14 6.11h-1.7l2.26-6.41c.33-.89.85-1.34 1.55-1.35s1.22.46 1.54 1.35l2.28 6.41h-1.67zm4.46-.32h3.64v1.33h-3.77a1.41 1.41 0 0 1-1.19-.56 1.28 1.28 0 0 1-.27-.79v-6.31h1.55zM166.87 32.98l2-5.55h1.51l-2.05 5.82c-.31.81-.78 1.22-1.42 1.23s-1.1-.42-1.4-1.23l-2.1-5.77h1.51zm5.63-1.43v1.63h3.61v1.21h-3.72a1.31 1.31 0 0 1-1.08-.51 1.15 1.15 0 0 1-.25-.72v-4.5a1.12 1.12 0 0 1 .53-1 1.35 1.35 0 0 1 .8-.25h3.68v1.21h-3.61v1.7h3.32v1.21z"/><path d="M179.2 28.64v5.75h-1.42v-5.73a1.13 1.13 0 0 1 .54-1 1.39 1.39 0 0 1 .79-.24h1.91a2.78 2.78 0 0 1 2.05.76 2.16 2.16 0 0 1 .66 1.6v.27a2.14 2.14 0 0 1-1 1.85 2.85 2.85 0 0 1-.79.37l1.89 2.11h-1.76l-1.75-2h-1.54v-1.21h2.24a1.2 1.2 0 0 0 1.17-.59 1.31 1.31 0 0 0 .12-.56v-.27a1 1 0 0 0-.75-1.07 1.53 1.53 0 0 0-.54-.08zm7.12-1.26a1.42 1.42 0 0 1 1.25.9l.16.33 2 4.6v-5.73h1.41v5.78a1.13 1.13 0 0 1-.56 1 1.58 1.58 0 0 1-.86.26 1.41 1.41 0 0 1-1.25-.89l-.16-.33-2-4.6v5.78h-1.41v-5.87a1.13 1.13 0 0 1 .56-1 1.49 1.49 0 0 1 .86-.27m12.52 1.53l-1.57 4.5h-1.49l-1.56-4.5-.54 5.52h-1.51l.64-5.8a1.31 1.31 0 0 1 .74-1.09 1.38 1.38 0 0 1 .56-.12 1.08 1.08 0 0 1 1 .49 1.23 1.23 0 0 1 .14.25l1.31 3.81 1.31-3.81a1.07 1.07 0 0 1 .82-.7.9.9 0 0 1 .28 0 1.21 1.21 0 0 1 1 .52 1.48 1.48 0 0 1 .26.69l.65 5.8h-1.52zm4.46 2.68v1.63h3.61v1.21h-3.66a1.31 1.31 0 0 1-1.08-.51 1.16 1.16 0 0 1-.26-.72v-4.5a1.14 1.14 0 0 1 .53-1 1.36 1.36 0 0 1 .81-.25h3.72v1.21h-3.61v1.7h3.33v1.21zm6.72-4.17a1.42 1.42 0 0 1 1.25.9l.16.33 2 4.6v-5.73h1.35v5.78a1.13 1.13 0 0 1-.56 1 1.58 1.58 0 0 1-.86.26 1.4 1.4 0 0 1-1.25-.89l-.16-.33-2-4.6v5.78h-1.41v-5.87a1.13 1.13 0 0 1 .56-1 1.49 1.49 0 0 1 .86-.27m9.2.14l-.89 1.21h-2.49v-1.21zm-.09 7h-1.42v-5.82a1.12 1.12 0 0 1 .53-1 1.35 1.35 0 0 1 .8-.25h2.09v1.21h-2zm7.19-5.84v5.75h-1.41v-5.73a1.13 1.13 0 0 1 .54-1 1.39 1.39 0 0 1 .79-.24h1.91a2.79 2.79 0 0 1 2.05.76 2.16 2.16 0 0 1 .66 1.6v.27a2.14 2.14 0 0 1-1 1.85 2.78 2.78 0 0 1-.8.37l1.9 2.11h-1.76l-1.75-2h-1.61l.21-1.21h2.1a1.21 1.21 0 0 0 1.17-.59 1.31 1.31 0 0 0 .12-.56v-.27a1 1 0 0 0-.75-1.07 1.61 1.61 0 0 0-.54-.08zm7.04 2.91v1.63h3.61v1.21h-3.73a1.31 1.31 0 0 1-1.08-.51 1.16 1.16 0 0 1-.26-.72v-4.5a1.12 1.12 0 0 1 .54-1 1.33 1.33 0 0 1 .8-.25h3.73v1.21h-3.61v1.7h3.33v1.21zm7.69-4.07h.94a4.08 4.08 0 0 1 1.73.39 2.28 2.28 0 0 1 .55.37l-1.22.94a1.34 1.34 0 0 0-.9-.48h-1.1a1.18 1.18 0 0 0-1 .56 1.57 1.57 0 0 0-.26.88v1.66a1.43 1.43 0 0 0 .51 1.15 1.24 1.24 0 0 0 .79.29h1.75v-2.32h1.42v2.24a1.13 1.13 0 0 1-.54 1 1.36 1.36 0 0 1-.79.24h-1.9a2.64 2.64 0 0 1-2-.81 2.5 2.5 0 0 1-.76-1.84v-1.67a2.51 2.51 0 0 1 .82-1.91 2.63 2.63 0 0 1 1.87-.74m4.52.05h1.42v4.31a1.43 1.43 0 0 0 .52 1.16 1.24 1.24 0 0 0 .77.28h.75a1.2 1.2 0 0 0 1-.56 1.5 1.5 0 0 0 .27-.88v-4.31h1.41v4.31a2.53 2.53 0 0 1-.81 1.9 2.68 2.68 0 0 1-1.9.75h-.75a2.66 2.66 0 0 1-2-.81 2.5 2.5 0 0 1-.76-1.84zm8.79 5.7h3.33v1.21h-3.44a1.26 1.26 0 0 1-1.07-.52 1.1 1.1 0 0 1-.25-.71v-5.68h1.41zm9.07.3h-3.68l.41-1.21h2.84l-1.2-3.41-1.95 5.55h-1.51l2-5.83c.31-.81.78-1.22 1.41-1.22s1.11.41 1.41 1.22l2.06 5.83h-1.51zm5.26-6l-1.13 1.21h-2.76v-1.21zm-.59 7h-1.42v-5.82a1.14 1.14 0 0 1 .53-1 1.36 1.36 0 0 1 .81-.25h2.09v1.21h-2zm6.32 0h-.94a2.62 2.62 0 0 1-1.94-.81 2.51 2.51 0 0 1-.77-1.84v-1.85a2.53 2.53 0 0 1 .81-1.89 2.7 2.7 0 0 1 1.9-.75h.94a2.65 2.65 0 0 1 1.94.8 2.54 2.54 0 0 1 .77 1.84v1.85a2.53 2.53 0 0 1-.81 1.9 2.7 2.7 0 0 1-1.9.75m-.94-1.21h.94a1.19 1.19 0 0 0 1-.57 1.49 1.49 0 0 0 .27-.87v-1.85a1.39 1.39 0 0 0-.53-1.15 1.14 1.14 0 0 0-.76-.28h-.94a1.17 1.17 0 0 0-1 .56 1.43 1.43 0 0 0-.28.87v1.85a1.41 1.41 0 0 0 .52 1.15 1.24 1.24 0 0 0 .78.29m6.18-4.63v5.75h-1.41v-5.73a1.13 1.13 0 0 1 .54-1 1.39 1.39 0 0 1 .79-.24h1.91a2.78 2.78 0 0 1 2.05.76 2.16 2.16 0 0 1 .66 1.6v.27a2.14 2.14 0 0 1-.95 1.85 2.78 2.78 0 0 1-.8.37l1.9 2.11h-1.76l-1.75-2h-1.42v-1.21h2.09a1.21 1.21 0 0 0 1.17-.59 1.31 1.31 0 0 0 .12-.56v-.27a1 1 0 0 0-.75-1.07 1.61 1.61 0 0 0-.54-.08zm18.54 4.84h-3.74l.32-1.21h3l-1.2-3.41-1.95 5.55h-1.51l2.05-5.83c.3-.81.77-1.22 1.41-1.22s1.11.41 1.4 1.22l2.07 5.83h-1.52zm2.58-6h1.41v4.31a1.44 1.44 0 0 0 .53 1.16 1.21 1.21 0 0 0 .76.28h.76a1.2 1.2 0 0 0 1-.56 1.44 1.44 0 0 0 .28-.88v-4.31h1.41v4.31a2.53 2.53 0 0 1-.81 1.9 2.7 2.7 0 0 1-1.9.75h-.76a2.64 2.64 0 0 1-1.94-.81 2.5 2.5 0 0 1-.76-1.84zm10.85 0l-1.22 1.21h-2.56v-1.21zm-.48 7h-1.42v-5.82a1.12 1.12 0 0 1 .54-1 1.33 1.33 0 0 1 .8-.25h2.09v1.21h-2zm4.43-3.38l-.37-.76h3.4v-2.91h1.42v6.96h-1.42v-2.84h-3.03v2.84h-1.41v-6.96h1.41v3.67zm9.16 3.38h-.94a2.62 2.62 0 0 1-1.94-.81 2.51 2.51 0 0 1-.77-1.84v-1.85a2.53 2.53 0 0 1 .81-1.89 2.7 2.7 0 0 1 1.9-.75h.94a2.69 2.69 0 0 1 1.95.8 2.53 2.53 0 0 1 .76 1.84v1.85a2.53 2.53 0 0 1-.81 1.9 2.68 2.68 0 0 1-1.9.75m-.94-1.21h.94a1.19 1.19 0 0 0 1-.57 1.56 1.56 0 0 0 .26-.87v-1.85a1.41 1.41 0 0 0-.52-1.15 1.18 1.18 0 0 0-.77-.28h-.94a1.18 1.18 0 0 0-1 .56 1.5 1.5 0 0 0-.28.87v1.85a1.44 1.44 0 0 0 .52 1.15 1.24 1.24 0 0 0 .78.29m6.2-4.63v5.75h-1.41v-5.73a1.14 1.14 0 0 1 .53-1 1.39 1.39 0 0 1 .82-.18h1.91a2.82 2.82 0 0 1 2.06.76 2.19 2.19 0 0 1 .65 1.6v.27a2.14 2.14 0 0 1-.95 1.85 2.73 2.73 0 0 1-.79.37l1.9 2.11h-1.78l-1.75-2h-1.62l-.23-1.21h2.49a1.19 1.19 0 0 0 1.17-.59 1.31 1.31 0 0 0 .12-.56v-.27a1 1 0 0 0-.75-1.07 1.53 1.53 0 0 0-.54-.08zm5.75-1.21H337v6.96h-1.41zm5.99.05l-.92 1.21h-2.65v-1.21zm-.27 7h-1.42v-5.82a1.14 1.14 0 0 1 .53-1 1.35 1.35 0 0 1 .8-.25h2.1v1.21h-2zm5.82-4l1.95-3h1.52l-2.07 3.29a2.88 2.88 0 0 1-.68.8v2.87h-1.42v-2.9a2.7 2.7 0 0 1-.71-.82l-2.05-3.24h1.51zm-59.35 0l2-3h1.51l-2.06 3.29a3.06 3.06 0 0 1-.68.8v2.87h-1.42v-2.9a2.7 2.7 0 0 1-.71-.82l-2.07-3.24h1.51z"/></g><path d="M119.49 6.54c-1.18-3.4-3.24-6-6.8-6s-5.61 2.61-6.8 6l-9.94 28.49h7.3l1.58-4.55 2.06-5.91 5.8-16.7 9.45 27.16h7.3z" fill="#9d805f"/><g fill="#344b61"><path d="M153.14 3.68v-.55a.12.12 0 0 1 .13-.13h1.51c.08 0 .12.05.12.13v3.89a.75.75 0 0 0 .15.53.67.67 0 0 0 .46.14h.39c.34 0 .51.26.51.77a1.09 1.09 0 0 1-.12.61.47.47 0 0 1-.39.15h-1.31a2 2 0 0 1-1-.19 1 1 0 0 1-.47-.74 2 2 0 0 1-.64.34 2.54 2.54 0 0 1-.78.11 2.93 2.93 0 0 1-.94-.14 2 2 0 0 1-.79-.43 1.87 1.87 0 0 1-.54-.76 3 3 0 0 1-.2-1.14 3.13 3.13 0 0 1 .22-1.26 2.12 2.12 0 0 1 .59-.8 2.18 2.18 0 0 1 .82-.41 3.73 3.73 0 0 1 .94-.12zm-2.57-1.57a.12.12 0 0 1-.13-.13V.74c0-.09 0-.13.13-.13h1.27c.08 0 .12 0 .12.13v1.24c0 .08 0 .13-.12.13zm1.53 5.1a1.05 1.05 0 0 0 .76-.27 1.14 1.14 0 0 0 .28-.86v-.87h-1a1.21 1.21 0 0 0-.76.23 1 1 0 0 0-.29.83.82.82 0 0 0 .29.73 1.19 1.19 0 0 0 .73.21m.42-5.1c-.08 0-.12-.05-.12-.13V.74c0-.09 0-.13.12-.13h1.25c.09 0 .13 0 .13.13v1.24a.12.12 0 0 1-.13.13z"/><path d="M157.48 4.02c0-.09 0-.13.13-.13h1.52c.08 0 .12 0 .12.13v3a.66.66 0 0 0 .28.5 1.13 1.13 0 0 0 .69.18h.29a.43.43 0 0 1 .38.18 1.06 1.06 0 0 1 .13.58c0 .52-.17.77-.51.77a2.67 2.67 0 0 1-.84-.11 1.12 1.12 0 0 1-.59-.52 1 1 0 0 1-.6.52 4 4 0 0 1-1.09.11h-1.31a.49.49 0 0 1-.38-.15 1.06 1.06 0 0 1-.12-.59 1.14 1.14 0 0 1 .12-.61.43.43 0 0 1 .38-.18h.79c.27 0 .44-.08.51-.23a2.24 2.24 0 0 0 .1-.81zm-.8 7.8a.12.12 0 0 1-.13-.13v-1.21c0-.08 0-.12.13-.12h1.27a.11.11 0 0 1 .12.12v1.24c0 .09 0 .13-.12.13zm1.95 0c-.08 0-.12 0-.12-.13v-1.21a.11.11 0 0 1 .12-.12h1.28c.09 0 .13 0 .13.12v1.24c0 .09 0 .13-.13.13z"/><path d="M164.47 9.31a4.09 4.09 0 0 1-1.24-.17 2 2 0 0 1-.94-.6 1.19 1.19 0 0 1-.37.37 2.06 2.06 0 0 1-.48.21 4.21 4.21 0 0 1-.49.09h-.43a.46.46 0 0 1-.38-.17 1 1 0 0 1-.12-.58 1.16 1.16 0 0 1 .11-.61.43.43 0 0 1 .39-.18h.37a.72.72 0 0 0 .53-.24 1.43 1.43 0 0 0 .26-.9v-.25a2.56 2.56 0 0 1 .72-1.95 3.42 3.42 0 0 1 4.12 0 2.83 2.83 0 0 1 .76 2.16v.17a1 1 0 0 0 .23.78.78.78 0 0 0 .54.19h.37a.43.43 0 0 1 .38.18 1 1 0 0 1 .13.58q0 .78-.51.78h-.47a2.63 2.63 0 0 1-.47-.1 1.59 1.59 0 0 1-.43-.22 1.57 1.57 0 0 1-.36-.4 2 2 0 0 1-.95.64 4.28 4.28 0 0 1-1.27.18m0-4.1c-.7 0-1 .43-1 1.28a1.48 1.48 0 0 0 .26 1 1.23 1.23 0 0 0 1.56 0 1.53 1.53 0 0 0 .26-1c0-.85-.35-1.28-1-1.28"/><path d="M168.47 9.22a.46.46 0 0 1-.38-.15 1.13 1.13 0 0 1-.12-.62 1.08 1.08 0 0 1 .12-.59.45.45 0 0 1 .38-.18h1a2.59 2.59 0 0 1-.2-1.14 3.49 3.49 0 0 1 .23-1.38 2.34 2.34 0 0 1 .63-.88 2.27 2.27 0 0 1 .9-.46 3.67 3.67 0 0 1 1-.14 3.74 3.74 0 0 1 1.07.14 2.14 2.14 0 0 1 1.51 1.34 3.51 3.51 0 0 1 .23 1.39 3.41 3.41 0 0 1-.21 1.29 2.19 2.19 0 0 1-.59.82 2.25 2.25 0 0 1-.89.44 5 5 0 0 1-1.11.12zm1.94-6.61a.11.11 0 0 1-.12-.12V1.24a.11.11 0 0 1 .12-.12h1.27c.08 0 .13 0 .13.12v1.24c0 .08-.05.12-.13.12zm1.64 2.6c-.68 0-1 .41-1 1.23a1.5 1.5 0 0 0 .26 1 1 1 0 0 0 .77.28 1 1 0 0 0 .78-.27 1.44 1.44 0 0 0 .26-1c0-.85-.35-1.27-1-1.27m.32-2.6c-.09 0-.13 0-.13-.12V1.24c0-.08 0-.12.13-.12h1.28a.11.11 0 0 1 .12.12v1.24a.11.11 0 0 1-.12.12zm4.44 1.44c0-.09 0-.13.13-.13h1.54c.09 0 .13 0 .13.13v3a.68.68 0 0 0 .27.5 1.18 1.18 0 0 0 .69.18h.28a.43.43 0 0 1 .38.18 1 1 0 0 1 .13.58c0 .52-.17.77-.51.77a2.55 2.55 0 0 1-.72-.08 1 1 0 0 1-.52-.35v.21a3.37 3.37 0 0 1-.56 2.13 2.3 2.3 0 0 1-1.9.69h-.58c-.09 0-.13 0-.13-.13v-1.28c0-.09 0-.13.13-.13h.28a1.13 1.13 0 0 0 .53-.11.63.63 0 0 0 .28-.32 1.24 1.24 0 0 0 .12-.51q0-.3 0-.69z"/><path d="M179.92 9.22a.77.77 0 0 1-.38-.08.43.43 0 0 1-.12-.36 2.24 2.24 0 0 1 0-.34 1.9 1.9 0 0 1 .09-.36.59.59 0 0 1 .15-.27.28.28 0 0 1 .23-.12h.45a.67.67 0 0 0 .46-.14.75.75 0 0 0 .15-.53V.74c0-.09 0-.13.12-.13h1.55a.12.12 0 0 1 .13.13v6.89a1.78 1.78 0 0 1-.35 1.21 1.44 1.44 0 0 1-1.14.38z"/><rect x="184.29" y=".61" width="1.78" height="8.61" rx=".13"/><path d="M194.14 3.68v-.55c0-.08 0-.13.12-.13h1.52a.12.12 0 0 1 .13.13v3.89a.8.8 0 0 0 .14.53.67.67 0 0 0 .46.14h.4c.34 0 .51.26.51.77a1.09 1.09 0 0 1-.12.61.48.48 0 0 1-.39.15h-1.32a2 2 0 0 1-1-.19 1 1 0 0 1-.46-.74 2 2 0 0 1-.65.34 2.47 2.47 0 0 1-.77.11 3 3 0 0 1-1-.14 2.1 2.1 0 0 1-.79-.43 1.87 1.87 0 0 1-.54-.76 3 3 0 0 1-.2-1.14 3.12 3.12 0 0 1 .23-1.26 2.1 2.1 0 0 1 .58-.8 2.26 2.26 0 0 1 .82-.41 3.81 3.81 0 0 1 1-.12zm-2.58-1.57c-.08 0-.12-.05-.12-.13V.74c0-.09 0-.13.12-.13h1.27a.12.12 0 0 1 .13.13v1.24a.12.12 0 0 1-.13.13zm1.53 5.1a1.05 1.05 0 0 0 .76-.27 1.14 1.14 0 0 0 .29-.86v-.87h-1a1.22 1.22 0 0 0-.77.23 1 1 0 0 0-.29.83.82.82 0 0 0 .29.73 1.21 1.21 0 0 0 .73.21m.42-5.1c-.08 0-.12-.05-.12-.13V.74c0-.09 0-.13.12-.13h1.26c.08 0 .12 0 .12.13v1.24c0 .08 0 .13-.12.13z"/><path d="M200.99 9.31a4.09 4.09 0 0 1-1.24-.17 2 2 0 0 1-.95-.6 1.26 1.26 0 0 1-.41.39 2.37 2.37 0 0 1-.47.2 2.1 2.1 0 0 1-.47.08h-.41a.45.45 0 0 1-.38-.17 1 1 0 0 1-.13-.58 1.16 1.16 0 0 1 .12-.62.45.45 0 0 1 .39-.17h.37a.74.74 0 0 0 .52-.24 1.32 1.32 0 0 0 .26-.9v-.25a3 3 0 0 1 .24-1.26 2.3 2.3 0 0 1 .62-.81 2.54 2.54 0 0 1 .89-.43 4.57 4.57 0 0 1 1.05-.12 3.79 3.79 0 0 1 1.07.14 2.23 2.23 0 0 1 .89.46 2.26 2.26 0 0 1 .62.89 3.61 3.61 0 0 1 .23 1.38 3.39 3.39 0 0 1-.22 1.31 2.13 2.13 0 0 1-.59.85 2.16 2.16 0 0 1-.89.46 3.93 3.93 0 0 1-1.11.14m0-4.1c-.7 0-1 .43-1 1.28a1.47 1.47 0 0 0 .27 1 1.24 1.24 0 0 0 1.52.01 1.54 1.54 0 0 0 .25-1c0-.85-.34-1.28-1-1.28m5.13 6.62c-.09 0-.13 0-.13-.13v-1.27c0-.09 0-.13.13-.13h1.45a2.28 2.28 0 0 0 .48-.05.86.86 0 0 0 .35-.15.78.78 0 0 0 .21-.33 1.38 1.38 0 0 0 .08-.53h-1.22a2.77 2.77 0 0 1-1.91-.6 2.66 2.66 0 0 1-.66-2 3.67 3.67 0 0 1 .23-1.37 2.51 2.51 0 0 1 .63-.9 2.22 2.22 0 0 1 .89-.49 3.57 3.57 0 0 1 1-.15 3.79 3.79 0 0 1 1.07.14 2.23 2.23 0 0 1 .89.46 2.25 2.25 0 0 1 .6.87 3.61 3.61 0 0 1 .23 1.36v1.18h.86c.34 0 .5.26.5.76a1.11 1.11 0 0 1-.12.63.46.46 0 0 1-.38.15h-.86v.21a2.37 2.37 0 0 1-.61 1.77 2.66 2.66 0 0 1-1.89.58zm1.62-6.61a.93.93 0 0 0-.78.35 1.57 1.57 0 0 0-.27 1 1.19 1.19 0 0 0 .29.93 1.27 1.27 0 0 0 .78.23h1V6.48c0-.83-.33-1.25-1-1.25"/><path d="M214.31 3.8a6.91 6.91 0 0 1 1.11.13 2.19 2.19 0 0 1 .85.36 1.74 1.74 0 0 1 .54.7 3 3 0 0 1 .19 1.14v.92a.52.52 0 0 0 .26.47 1.27 1.27 0 0 0 .7.17h.28a.43.43 0 0 1 .38.18 1 1 0 0 1 .16.61c0 .52-.17.77-.51.77a2.45 2.45 0 0 1-.91-.14 1.12 1.12 0 0 1-.62-.58 1.31 1.31 0 0 1-.64.57 2.87 2.87 0 0 1-1 .15h-3.72a.45.45 0 0 1-.39-.17 1.22 1.22 0 0 1-.12-.64.94.94 0 0 1 .12-.57.47.47 0 0 1 .39-.15h2.84a2.25 2.25 0 0 0 .49 0 .56.56 0 0 0 .29-.13.43.43 0 0 0 .13-.26 1.66 1.66 0 0 0 0-.42v-.58a.9.9 0 0 0-.28-.73 1.29 1.29 0 0 0-.87-.23h-1.9c-.08 0-.12 0-.12-.13v-1a.3.3 0 0 1 .09-.19l.16-.17 2.71-3.21a.13.13 0 0 1 .17 0l1 .89a.13.13 0 0 1 .05.18z"/><path d="M218.78 4.69a4.07 4.07 0 0 1 1-.73 3 3 0 0 1 1.37-.28 3.73 3.73 0 0 1 1.42.24 2.49 2.49 0 0 1 .94.66 2.73 2.73 0 0 1 .52 1 4.55 4.55 0 0 1 .17 1.25v.2a.66.66 0 0 0 .27.49 1.18 1.18 0 0 0 .68.17h.29a.43.43 0 0 1 .38.18 1 1 0 0 1 .13.58q0 .78-.51.78a2.67 2.67 0 0 1-.93-.15 1.26 1.26 0 0 1-.64-.63 1.28 1.28 0 0 1-.72.62 3.55 3.55 0 0 1-1.1.16h-3.85a.43.43 0 0 1-.38-.18 1 1 0 0 1-.04-.57 1.17 1.17 0 0 1 .12-.6.42.42 0 0 1 .39-.19h3.14a2.29 2.29 0 0 0 .5 0 .61.61 0 0 0 .3-.15.65.65 0 0 0 .15-.3 2 2 0 0 0 0-.46 2.74 2.74 0 0 0-.06-.59 1.16 1.16 0 0 0-.22-.49 1 1 0 0 0-.39-.33 1.43 1.43 0 0 0-.62-.12 1.53 1.53 0 0 0-.72.16 2.56 2.56 0 0 0-.59.4.11.11 0 0 1-.17 0l-.75-.9c-.08-.08-.09-.14 0-.19"/><path d="M225.48 9.22a.74.74 0 0 1-.38-.08.43.43 0 0 1-.13-.36 2.24 2.24 0 0 1 0-.34q0-.2.09-.36a.72.72 0 0 1 .16-.27.28.28 0 0 1 .23-.12h.44a.68.68 0 0 0 .47-.14.8.8 0 0 0 .14-.53V.74a.12.12 0 0 1 .13-.13h1.55c.08 0 .12 0 .12.13v6.89a1.78 1.78 0 0 1-.34 1.21 1.45 1.45 0 0 1-1.14.38z"/><rect x="229.85" y=".61" width="1.78" height="8.61" rx=".13"/><path d="M234.18 11.82c-.09 0-.13 0-.13-.13v-1.27c0-.09 0-.13.13-.13h1.46a3 3 0 0 0 .45 0 .66.66 0 0 0 .35-.15.65.65 0 0 0 .23-.32 1.48 1.48 0 0 0 .08-.56h-.53a9.21 9.21 0 0 1-1.36-.09 2.48 2.48 0 0 1-1-.38 1.79 1.79 0 0 1-.65-.8 3.66 3.66 0 0 1-.22-1.37 3.47 3.47 0 0 1 .24-1.37 2.37 2.37 0 0 1 .62-.9 2.29 2.29 0 0 1 .89-.49 3.57 3.57 0 0 1 1-.15 3.74 3.74 0 0 1 1.07.14 2.16 2.16 0 0 1 1.5 1.33 3.83 3.83 0 0 1 .22 1.36v3a2.33 2.33 0 0 1-.61 1.77 2.62 2.62 0 0 1-1.89.58zm1.6-6.61a.91.91 0 0 0-.78.35 1.57 1.57 0 0 0-.27 1 1.15 1.15 0 0 0 .3.93 1.27 1.27 0 0 0 .78.23h1V6.48c0-.83-.33-1.25-1-1.25m14.69 2.32a.75.75 0 0 0 .15-.53v-3c0-.09 0-.13.13-.13h1.54c.09 0 .13 0 .13.13v3.61a1.78 1.78 0 0 1-.34 1.21 1.5 1.5 0 0 1-1.17.38h-6.58a1.45 1.45 0 0 1-1.14-.38 1.78 1.78 0 0 1-.34-1.21v-2.8c0-.09 0-.13.12-.13h1.55a.12.12 0 0 1 .13.13v2.19a.8.8 0 0 0 .14.53.68.68 0 0 0 .47.14h4.74a.66.66 0 0 0 .47-.14m-4.47-4.19c-.08 0-.12 0-.12-.13V1.99a.11.11 0 0 1 .12-.12h1.27c.09 0 .13 0 .13.12v1.24c0 .09 0 .13-.13.13zm2 0c-.09 0-.13 0-.13-.13V1.99c0-.08 0-.12.13-.12h1.28a.11.11 0 0 1 .12.12v1.24c0 .09 0 .13-.12.13zm9.38 4.33h1.15a.65.65 0 0 0 .46-.14.75.75 0 0 0 .15-.53V.74c0-.09 0-.13.13-.13h1.54c.09 0 .13 0 .13.13v6.89a1.78 1.78 0 0 1-.34 1.21 1.45 1.45 0 0 1-1.14.38h-5.9c-.08 0-.13 0-.13-.12V7.82a.12.12 0 0 1 .13-.13h2V2.48a.11.11 0 0 1 .12-.12h1.55c.09 0 .13 0 .13.12zm5.08-6.95c0-.09 0-.13.13-.13h1.52c.09 0 .13 0 .13.13v6.28a.8.8 0 0 0 .14.53.69.69 0 0 0 .47.14h.34a.42.42 0 0 1 .38.19 1.53 1.53 0 0 1 0 1.21.51.51 0 0 1-.39.13h-1.25a1.45 1.45 0 0 1-1.14-.38 1.84 1.84 0 0 1-.34-1.21z"/><path d="M266.26 3.92c0-.09 0-.13.12-.13h1.53c.08 0 .12 0 .12.13v.38a9 9 0 0 1 1.27-.44 5.68 5.68 0 0 1 1.48-.18 3.36 3.36 0 0 1 2.35.73 3 3 0 0 1 .8 2.32v.15a.61.61 0 0 1 0 .14.63.63 0 0 0 .28.49 1.18 1.18 0 0 0 .69.18h.28a.43.43 0 0 1 .38.18 1 1 0 0 1 .13.58q0 .78-.51.78a2.68 2.68 0 0 1-.94-.16 1.2 1.2 0 0 1-.63-.64 1.35 1.35 0 0 1-.8.64 5.23 5.23 0 0 1-1.4.16h-2.85-.4a1.54 1.54 0 0 1-.34-.08.36.36 0 0 1-.22-.15 1 1 0 0 1-.49.22 4.49 4.49 0 0 1-.7.05h-1.13a.47.47 0 0 1-.38-.16 1.08 1.08 0 0 1-.13-.61 1.07 1.07 0 0 1 .12-.62.45.45 0 0 1 .39-.15h.5a.56.56 0 0 0 .3-.08.44.44 0 0 0 .15-.22 1.49 1.49 0 0 0 .06-.34v-.45zm4.14 1.29a4.39 4.39 0 0 0-1.25.18 9.66 9.66 0 0 0-1.12.39v1.7.23h2.52.77a1 1 0 0 0 .46-.13.51.51 0 0 0 .22-.32 2.61 2.61 0 0 0 0-1.2.93.93 0 0 0-.26-.45 1.14 1.14 0 0 0-.5-.27 3 3 0 0 0-.8-.09"/><path d="M275.13 9.22a.49.49 0 0 1-.38-.15 1 1 0 0 1-.12-.57c0-.54.17-.81.5-.81h.79a.65.65 0 0 0 .46-.14.75.75 0 0 0 .15-.53v-3c0-.09 0-.13.12-.13h1.53c.08 0 .12 0 .12.13v3.61a1.78 1.78 0 0 1-.34 1.21 1.42 1.42 0 0 1-1.13.38zm.59-6.61c-.09 0-.13 0-.13-.12V1.24c0-.08 0-.12.13-.12h1.27a.11.11 0 0 1 .12.12v1.24a.11.11 0 0 1-.12.12zm1.95 0c-.08 0-.13 0-.13-.12V1.24c0-.08.05-.12.13-.12h1.28c.09 0 .13 0 .13.12v1.24c0 .08 0 .12-.13.12zm5.83 5.08h1.16a.67.67 0 0 0 .46-.14.75.75 0 0 0 .15-.53V.74c0-.09 0-.13.12-.13h1.55a.12.12 0 0 1 .13.13v6.89a1.78 1.78 0 0 1-.35 1.21 1.45 1.45 0 0 1-1.14.38h-5.89c-.09 0-.13 0-.13-.12V7.82c0-.09 0-.13.13-.13h2V2.48c0-.08 0-.12.13-.12h1.55a.11.11 0 0 1 .12.12z"/><rect x="288.58" y=".61" width="1.78" height="8.61" rx=".13"/><path d="M298.71 9.31a3.51 3.51 0 0 1-1.05-.14 2 2 0 0 1-.83-.46.78.78 0 0 1-.19.21l-.2.17a1 1 0 0 0-.16.23.9.9 0 0 0-.06.36v2.14h-1.8v-2.4a2 2 0 0 1 .1-.71 1.6 1.6 0 0 1 .6-.76l.36-.24a1.84 1.84 0 0 0 .3-.23.76.76 0 0 0 .15-.39 1.94 1.94 0 0 1 0-.24v-.27a3.61 3.61 0 0 1 .23-1.38 2.26 2.26 0 0 1 .62-.89 2.29 2.29 0 0 1 .89-.46 4.16 4.16 0 0 1 2.14 0 2.27 2.27 0 0 1 .9.46 2.35 2.35 0 0 1 .61.89 3.61 3.61 0 0 1 .23 1.38.91.91 0 0 1 0 .17v.16a.86.86 0 0 0 .23.57.76.76 0 0 0 .54.19h.36a.44.44 0 0 1 .38.18 1.06 1.06 0 0 1 .13.58q0 .78-.51.78h-.46a2.36 2.36 0 0 1-.46-.1 1.47 1.47 0 0 1-.8-.62 2 2 0 0 1-1 .64 4.17 4.17 0 0 1-1.26.18m0-4.1c-.69 0-1 .43-1 1.28a1.48 1.48 0 0 0 .26 1 1.21 1.21 0 0 0 1.55 0 1.53 1.53 0 0 0 .26-1c0-.85-.35-1.28-1-1.28"/><path d="M304.07 4.02c0-.09 0-.13.12-.13h1.53c.08 0 .12 0 .12.13v3a.66.66 0 0 0 .28.5 1.13 1.13 0 0 0 .69.18h.29a.44.44 0 0 1 .38.18 1.06 1.06 0 0 1 .13.58c0 .52-.17.77-.51.77a2.67 2.67 0 0 1-.84-.11 1.12 1.12 0 0 1-.59-.52 1 1 0 0 1-.6.52 4 4 0 0 1-1.09.11h-1.31a.48.48 0 0 1-.38-.15 1.06 1.06 0 0 1-.12-.59 1.14 1.14 0 0 1 .12-.61.43.43 0 0 1 .38-.18h.79c.27 0 .44-.08.51-.23a2.49 2.49 0 0 0 .1-.81zm-.8 7.8a.12.12 0 0 1-.13-.13v-1.21c0-.08.05-.12.13-.12h1.27a.11.11 0 0 1 .12.12v1.24c0 .09 0 .13-.12.13zm1.95 0c-.08 0-.12 0-.12-.13v-1.21a.11.11 0 0 1 .12-.12h1.28c.09 0 .13 0 .13.12v1.24c0 .09 0 .13-.13.13z"/><path d="M307.7 7.69a.52.52 0 0 0 .35-.1.75.75 0 0 0 .2-.28 1.57 1.57 0 0 0 .08-.41v-.5V.74a.12.12 0 0 1 .13-.13h1.52a.12.12 0 0 1 .13.13V4.3a8.07 8.07 0 0 1 1.26-.44 5.55 5.55 0 0 1 1.41-.18 3.32 3.32 0 0 1 2.34.74 3 3 0 0 1 .82 2.31v.15a.57.57 0 0 0 0 .13.68.68 0 0 0 .27.5 1.19 1.19 0 0 0 .7.18h.29a.44.44 0 0 1 .38.18 1.06 1.06 0 0 1 .2.61c0 .52-.17.77-.51.77a2.71 2.71 0 0 1-.95-.15 1.28 1.28 0 0 1-.64-.64 1.34 1.34 0 0 1-.82.64 5.48 5.48 0 0 1-1.43.15h-3a.89.89 0 0 1-.73-.26.85.85 0 0 1-.57.21 6.85 6.85 0 0 1-.91 0h-1a.46.46 0 0 1-.38-.15 1.08 1.08 0 0 1-.13-.61 1 1 0 0 1 .12-.62.45.45 0 0 1 .39-.15zm4.78-2.48a4.46 4.46 0 0 0-1.26.18 9.27 9.27 0 0 0-1.1.39V7.2a3.6 3.6 0 0 1 0 .49h2.52.77a1 1 0 0 0 .46-.13.47.47 0 0 0 .22-.32 2.8 2.8 0 0 0 0-1.2 1 1 0 0 0-.27-.45 1.1 1.1 0 0 0-.49-.27 2.94 2.94 0 0 0-.8-.09m-.4-2.6a.11.11 0 0 1-.12-.12V1.24a.11.11 0 0 1 .12-.12h1.57c.09 0 .13 0 .13.12v1.24c0 .08 0 .12-.13.12z"/><path d="M319.89 8.59a1 1 0 0 1-.59.51 3.75 3.75 0 0 1-1.07.12h-1a.65.65 0 0 1-.38-.08c-.09-.05-.13-.17-.13-.36a2.16 2.16 0 0 1 0-.35 1.35 1.35 0 0 1 .08-.36.89.89 0 0 1 .17-.27.34.34 0 0 1 .25-.11h.42c.26 0 .43-.07.5-.22a2 2 0 0 0 .11-.79V4.02q0-.11.18-.12h1.49c.09 0 .13 0 .13.13v3a.68.68 0 0 0 .27.5 1.18 1.18 0 0 0 .69.18h.3a.45.45 0 0 1 .38.18 1.07 1.07 0 0 1 .12.58c0 .52-.17.77-.5.77a2.63 2.63 0 0 1-.84-.11 1.11 1.11 0 0 1-.6-.52m-1.51-6a.11.11 0 0 1-.12-.12V1.24a.11.11 0 0 1 .12-.12h1.58a.11.11 0 0 1 .12.12v1.24a.11.11 0 0 1-.12.12z"/><path d="M321.27 9.22a.49.49 0 0 1-.38-.15 1 1 0 0 1-.11-.59c0-.54.17-.81.5-.81h.79a.65.65 0 0 0 .46-.14.75.75 0 0 0 .15-.53V4c0-.09 0-.13.12-.13h1.53c.08 0 .12 0 .12.13v3.61a1.78 1.78 0 0 1-.34 1.21 1.42 1.42 0 0 1-1.13.38zm.59-6.61c-.09 0-.13 0-.13-.12V1.24c0-.08 0-.12.13-.12h1.27a.11.11 0 0 1 .12.12v1.24a.11.11 0 0 1-.12.12zm1.95 0c-.08 0-.13 0-.13-.12V1.24c0-.08.05-.12.13-.12h1.28c.09 0 .13 0 .13.12v1.24c0 .08 0 .12-.13.12zm8.8 1.07v-.55a.12.12 0 0 1 .13-.13h1.54a.12.12 0 0 1 .13.13v3.89a.75.75 0 0 0 .15.53.65.65 0 0 0 .46.14h.39c.34 0 .51.26.51.77a1.09 1.09 0 0 1-.12.61.47.47 0 0 1-.39.15h-1.32a2 2 0 0 1-1-.19 1.05 1.05 0 0 1-.46-.74 1.91 1.91 0 0 1-.65.34 2.43 2.43 0 0 1-.77.11 2.93 2.93 0 0 1-.94-.14 2.14 2.14 0 0 1-.8-.43 2 2 0 0 1-.53-.76 2.77 2.77 0 0 1-.2-1.14 3.13 3.13 0 0 1 .22-1.26 2 2 0 0 1 1.41-1.21 3.73 3.73 0 0 1 .94-.12zm-2.57-1.57a.12.12 0 0 1-.13-.13V.74c0-.09 0-.13.13-.13h1.26c.09 0 .13 0 .13.13v1.24a.12.12 0 0 1-.13.13zm1.52 5.1a1.08 1.08 0 0 0 .77-.27 1.14 1.14 0 0 0 .28-.86v-.87h-1a1.24 1.24 0 0 0-.77.23 1 1 0 0 0-.29.83.85.85 0 0 0 .29.73 1.23 1.23 0 0 0 .73.21m.43-5.1a.12.12 0 0 1-.13-.13V.74c0-.09 0-.13.13-.13h1.28a.12.12 0 0 1 .13.13v1.24a.12.12 0 0 1-.13.13z"/><path d="M338.23 8.59a1 1 0 0 1-.6.51 3.67 3.67 0 0 1-1.06.12h-1a.67.67 0 0 1-.38-.08q-.12-.07-.12-.36a2.11 2.11 0 0 1 0-.35 1.9 1.9 0 0 1 .09-.36.88.88 0 0 1 .16-.27.36.36 0 0 1 .26-.11h.42c.26 0 .43-.07.5-.22a2.08 2.08 0 0 0 .1-.79V4.02c0-.07.07-.11.19-.12h1.49a.12.12 0 0 1 .13.13v3a.62.62 0 0 0 .27.5 1.13 1.13 0 0 0 .69.18h.29a.43.43 0 0 1 .38.18 1 1 0 0 1 .13.58c0 .52-.17.77-.51.77a2.67 2.67 0 0 1-.84-.11 1.12 1.12 0 0 1-.59-.52m-1.74-6.71a2.39 2.39 0 0 1-.13-.28 1.25 1.25 0 0 1-.05-.36 1.2 1.2 0 0 1 .09-.45 1.08 1.08 0 0 1 .25-.39 1.17 1.17 0 0 1 .44-.29 1.82 1.82 0 0 1 .66-.11 1.66 1.66 0 0 1 .72.15 1.27 1.27 0 0 1 .48.37.09.09 0 0 1 0 .13l-.41.43h-.11a1.37 1.37 0 0 0-.29-.2.73.73 0 0 0-.35-.07.49.49 0 0 0-.39.14.47.47 0 0 0-.15.37.58.58 0 0 0 .11.37.77.77 0 0 0 .26.22h1.33s.07 0 .07.09v.59c0 .06 0 .09-.07.09h-2.89s-.08 0-.08-.09v-.59c0-.06 0-.09.08-.09z"/><path d="M341.04 4.02c0-.09 0-.13.13-.13h1.52c.09 0 .13 0 .13.13v3a.68.68 0 0 0 .27.5 1.18 1.18 0 0 0 .69.18h.29a.43.43 0 0 1 .38.18 1 1 0 0 1 .13.58c0 .52-.17.77-.51.77a2.57 2.57 0 0 1-.83-.11 1.11 1.11 0 0 1-.6-.52.94.94 0 0 1-.6.52 3.92 3.92 0 0 1-1.09.11h-1.3a.46.46 0 0 1-.38-.15 1 1 0 0 1-.13-.59 1.14 1.14 0 0 1 .12-.61.43.43 0 0 1 .39-.18h.78c.27 0 .44-.08.51-.23a2.24 2.24 0 0 0 .1-.81zm-.8 7.8c-.08 0-.12 0-.12-.13v-1.21a.11.11 0 0 1 .12-.12h1.27c.09 0 .13 0 .13.12v1.24c0 .09 0 .13-.13.13zm2 0c-.09 0-.13 0-.13-.13v-1.21c0-.08 0-.12.13-.12h1.28a.11.11 0 0 1 .12.12v1.24c0 .09 0 .13-.12.13z"/><path d="M344.09 9.22a.42.42 0 0 1-.38-.17.92.92 0 0 1-.13-.57 1.12 1.12 0 0 1 .12-.6.42.42 0 0 1 .39-.19h1.24a2 2 0 0 1-.18-.88 2.14 2.14 0 0 1 .17-.89 1.72 1.72 0 0 1 .45-.6 1.76 1.76 0 0 1 .62-.33 2.65 2.65 0 0 1 .74-.11 2.26 2.26 0 0 1 1.5.46 1.84 1.84 0 0 1 .54 1.47 1.47 1.47 0 0 1-.07.48 3 3 0 0 1-.16.4.77.77 0 0 0 .76-.35 1.7 1.7 0 0 0 .19-.85 2 2 0 0 0-.16-.85 1.42 1.42 0 0 0-.44-.58 1.89 1.89 0 0 0-.68-.34 3.5 3.5 0 0 0-.89-.11 7.23 7.23 0 0 0-.9.07 7 7 0 0 0-.93.21h-.13a.08.08 0 0 1-.1-.06l-.27-.95a.36.36 0 0 1 0-.14.15.15 0 0 1 .1-.09 8.53 8.53 0 0 1 1.22-.38 6.59 6.59 0 0 1 1.43-.14 4.75 4.75 0 0 1 1.77.29 2.86 2.86 0 0 1 1.11.75 2.59 2.59 0 0 1 .58 1.05 4.38 4.38 0 0 1 .18 1.26 5.66 5.66 0 0 1-.12 1.24 2 2 0 0 1-.43.86 1.77 1.77 0 0 1-.78.51 3.86 3.86 0 0 1-1.21.16zm3.06-3.26a.69.69 0 0 0-.55.23 1 1 0 0 0-.19.67 1 1 0 0 0 .17.65.65.65 0 0 0 .49.23h.14a.62.62 0 0 0 .49-.23 1.06 1.06 0 0 0 .16-.65 1.09 1.09 0 0 0-.18-.67.65.65 0 0 0-.53-.23M16.78.91H0v5.92h9.13v28.12h6.84V6.83h9.72V.91z"/><path d="M36.69.91h9.21A13 13 0 0 1 59 13.85v8.17a13 13 0 0 1-13.1 12.93H30.25v-28a6.25 6.25 0 0 1 6.44-6m15.47 12.9c0-3.85-2.79-7-6.26-7h-8.8v22.19h8.8c3.47 0 6.26-3.17 6.26-7zM16.88.89H.15v5.92h9.13v28.12h6.84V6.81h9.72V.89z"/><path d="M36.84.89h9.22a13 13 0 0 1 13.09 12.94V22a13 13 0 0 1-13.09 12.93H30.4v-28a6.25 6.25 0 0 1 6.44-6m15.47 12.9c0-3.85-2.79-7-6.25-7h-8.81v22.19h8.81c3.46 0 6.25-3.17 6.25-7zm32.53 10.78c4.93-1.47 8.4-5.37 8.4-10.87v-1.26c0-7.15-5.89-11.56-13.1-11.56h-9.22a6.24 6.24 0 0 0-6.43 6v28h6.84V25.3h5.71l8.44 9.63h8.53zm-13.51-5.23V6.81h8.81c3.47 0 6.25 1.79 6.25 5.64v1.29c0 3.85-2.78 5.64-6.25 5.64zM138.12.91h.84v34.04h-.84z"/></g></g></svg>